<?xml version="1.0" encoding="utf-8"?>
<!-- Generator: Adobe Illustrator 22.0.1, SVG Export Plug-In . SVG Version: 6.00 Build 0)  -->
<svg version="1.1" id="Layer_1" xmlns="http://www.w3.org/2000/svg" xmlns:xlink="http://www.w3.org/1999/xlink" x="0px" y="0px"
	 viewBox="0 0 105.302 37.412" style="enable-background:new 0 0 105.302 37.412;" xml:space="preserve">
<path style="fill:#E3264D;" d="M20.487,2.615c-2.07,0-4.18,0.474-6.331,1.424c-2.151,0.95-4.097,2.074-5.84,3.376
	c-1.744,1.41-3.214,3.064-4.411,4.962c-1.198,1.899-1.907,3.689-2.124,5.369c-0.163,1.412,0.013,2.605,0.531,3.582
	c0.517,0.976,1.511,1.518,2.982,1.626c0.762,0.061,1.538-0.06,2.328-0.362c0.788-0.303,1.552-0.686,2.287-1.149
	c0.735-0.462,1.442-1.007,2.123-1.634c0.681-0.626,1.32-1.238,1.92-1.838c0.926-0.98,1.729-2.11,2.41-3.39
	c0.68-1.278,1.074-2.355,1.185-3.226c0.108-0.871-0.029-1.579-0.409-2.124c-0.163-0.327-0.246-0.517-0.246-0.572
	c0.109-0.163,0.328-0.082,0.655,0.245c0.108,0.11,0.312,0.422,0.612,0.94c0.299,0.518,0.395,1.239,0.286,2.164
	c-0.055,1.09-0.396,2.247-1.021,3.472c-0.627,1.225-1.403,2.356-2.328,3.389c-0.545,0.601-1.199,1.185-1.96,1.757
	c-0.764,0.572-1.58,1.103-2.452,1.593c-0.871,0.49-1.784,0.885-2.736,1.184c-0.953,0.3-1.892,0.422-2.818,0.368
	c-1.852-0.109-3.213-0.724-4.084-1.844c-0.871-1.121-1.198-2.556-0.981-4.306c0.218-1.638,0.981-3.442,2.288-5.41
	C3.66,10.243,5.402,8.44,7.581,6.8c1.96-1.476,4.097-2.68,6.412-3.609c2.314-0.929,4.533-1.393,6.657-1.393
	c1.144,0,2.3,0.122,3.472,0.367c1.17,0.245,2.205,0.695,3.104,1.348c0.899,0.653,1.593,1.539,2.082,2.655
	c0.491,1.116,0.626,2.519,0.41,4.206c-0.111,1.254-0.682,2.819-1.716,4.697c-1.035,1.879-2.287,3.827-3.758,5.841
	c-1.47,2.015-3.021,3.976-4.655,5.881c-1.634,1.907-3.133,3.541-4.493,4.901v0.082c1.307-0.926,2.681-1.92,4.125-2.982
	c1.442-1.062,3.171-2.328,5.187-3.798c1.742-1.252,3.539-2.559,5.391-3.921c1.85-1.36,3.43-2.559,4.738-3.594
	c0.49-1.415,1.021-2.818,1.593-4.207c0.571-1.388,1.238-2.681,2.001-3.88c0.98-1.579,1.973-2.749,2.981-3.512
	c1.007-0.762,1.946-1.144,2.819-1.144c0.761,0,1.347,0.3,1.755,0.899c0.41,0.6,0.45,1.388,0.123,2.369
	c-0.273,0.817-0.709,1.621-1.307,2.409c-0.6,0.79-1.266,1.526-2.001,2.206c-0.735,0.682-1.47,1.335-2.205,1.96
	c-0.736,0.627-1.376,1.213-1.92,1.756c-0.327,1.254-0.667,2.602-1.022,4.044c-0.354,1.444-0.749,2.859-1.183,4.247
	c-0.437,1.389-0.913,2.71-1.43,3.962c-0.518,1.254-1.102,2.316-1.757,3.186v0.082c0.708-0.654,1.634-1.498,2.778-2.533
	c1.143-1.034,2.396-2.136,3.757-3.308c1.361-1.171,2.749-2.381,4.166-3.635c1.415-1.252,2.749-2.422,4.003-3.513
	c1.96-1.796,3.621-3.457,4.983-4.982c1.36-1.524,2.477-2.941,3.348-4.248c0.872-1.307,1.539-2.463,2.002-3.471
	c0.462-1.008,0.748-1.865,0.858-2.573c0.108-0.599,0.122-1.144,0.041-1.634c-0.082-0.49-0.259-0.87-0.531-1.144
	c-0.274-0.271-0.532-0.408-0.776-0.408c-0.245,0-0.341-0.054-0.286-0.164c0.054-0.108,0.176-0.175,0.367-0.204
	C57.885,0.014,58.034,0,58.143,0c1.198,0,2.083,0.396,2.656,1.185c0.571,0.79,0.802,1.729,0.694,2.818
	c-0.219,1.689-1.308,3.839-3.268,6.453c-1.96,2.614-5.201,5.773-9.72,9.475c-3.268,2.669-6.441,5.31-9.517,7.924
	c-3.077,2.614-5.95,5.201-8.617,7.76c-0.273,0.273-0.6,0.545-0.98,0.817c-0.382,0.272-0.817,0.408-1.307,0.408
	c-0.437,0-0.668-0.15-0.694-0.449c-0.029-0.298,0.094-0.612,0.367-0.94c0.707-0.925,1.347-2.095,1.92-3.512
	c0.571-1.415,1.102-2.885,1.592-4.411c0.491-1.524,0.966-3.049,1.43-4.574c0.462-1.524,0.94-2.859,1.43-4.003v-0.082
	c-0.382,0.328-0.954,0.79-1.716,1.389c-0.764,0.6-1.634,1.266-2.614,2.002c-0.98,0.735-2.015,1.511-3.104,2.328
	c-1.09,0.817-2.124,1.58-3.104,2.287c-0.871,0.599-1.934,1.362-3.186,2.287c-1.253,0.927-2.532,1.852-3.839,2.777
	c-1.307,0.927-2.56,1.811-3.757,2.655c-1.199,0.845-2.179,1.511-2.941,2.001c-0.273,0.164-0.559,0.34-0.857,0.531
	c-0.301,0.19-0.586,0.286-0.859,0.286c-0.49,0-0.79-0.15-0.898-0.449c-0.11-0.3,0.027-0.668,0.408-1.103
	c1.579-1.634,3.254-3.472,5.024-5.514c1.769-2.042,3.553-4.342,5.35-6.902c1.798-2.549,3.403-5.112,4.819-7.688
	c1.416-2.577,2.288-4.896,2.615-6.958c0.327-2.115,0-3.674-0.981-4.678C23.51,3.117,22.175,2.615,20.487,2.615 M38.621,14.867
	c0.38-0.38,0.87-0.817,1.471-1.307c0.598-0.49,1.197-1.034,1.797-1.633c0.598-0.599,1.169-1.226,1.714-1.879
	c0.544-0.654,0.953-1.307,1.226-1.961c0.271-0.762,0.299-1.374,0.082-1.838c-0.219-0.462-0.601-0.694-1.144-0.694
	c-0.6,0-1.171,0.341-1.715,1.021c-0.545,0.682-0.953,1.321-1.226,1.92c-0.436,0.926-0.845,1.988-1.225,3.185
	C39.22,12.88,38.892,13.942,38.621,14.867"/>
<path style="fill:#E3264D;" d="M64.27,2.615c-2.07,0-4.18,0.474-6.331,1.424c-2.151,0.95-4.097,2.074-5.84,3.376
	c-1.744,1.41-3.214,3.064-4.411,4.962c-1.198,1.899-1.907,3.689-2.124,5.369c-0.163,1.412,0.013,2.605,0.531,3.582
	c0.517,0.976,1.511,1.518,2.982,1.626c0.762,0.061,1.538-0.06,2.328-0.362c0.788-0.303,1.552-0.686,2.287-1.149
	c0.735-0.462,1.442-1.007,2.123-1.634c0.681-0.626,1.32-1.238,1.92-1.838c0.926-0.98,1.729-2.11,2.41-3.39
	c0.68-1.278,1.074-2.355,1.185-3.226c0.108-0.871-0.029-1.579-0.409-2.124c-0.163-0.327-0.246-0.517-0.246-0.572
	c0.109-0.163,0.328-0.082,0.655,0.245c0.108,0.11,0.312,0.422,0.612,0.94c0.299,0.518,0.395,1.239,0.286,2.164
	c-0.055,1.09-0.396,2.247-1.021,3.472c-0.627,1.225-1.403,2.356-2.328,3.389c-0.545,0.601-1.199,1.185-1.96,1.757
	c-0.764,0.572-1.58,1.103-2.452,1.593c-0.871,0.49-1.784,0.885-2.736,1.184c-0.953,0.3-1.892,0.422-2.818,0.368
	c-1.852-0.109-3.213-0.724-4.084-1.844c-0.871-1.121-1.198-2.556-0.981-4.306c0.218-1.638,0.981-3.442,2.288-5.41
	c1.307-1.968,3.049-3.771,5.228-5.411c1.96-1.476,4.097-2.68,6.412-3.609c2.314-0.929,4.533-1.393,6.657-1.393
	c1.144,0,2.3,0.122,3.472,0.367c1.17,0.245,2.205,0.695,3.104,1.348c0.899,0.653,1.593,1.539,2.082,2.655
	c0.491,1.116,0.626,2.519,0.41,4.206c-0.111,1.254-0.682,2.819-1.716,4.697c-1.035,1.879-2.287,3.827-3.758,5.841
	c-1.47,2.015-3.021,3.976-4.655,5.881c-1.634,1.907-3.133,3.541-4.493,4.901v0.082c1.307-0.926,2.681-1.92,4.125-2.982
	c1.442-1.062,3.171-2.328,5.187-3.798c1.742-1.252,3.539-2.559,5.391-3.921c1.85-1.36,3.43-2.559,4.738-3.594
	c0.49-1.415,1.021-2.818,1.593-4.207c0.571-1.388,1.238-2.681,2.001-3.88c0.98-1.579,1.973-2.749,2.981-3.512
	c1.007-0.762,1.946-1.144,2.819-1.144c0.761,0,1.347,0.3,1.755,0.899c0.41,0.6,0.45,1.388,0.123,2.369
	c-0.273,0.817-0.709,1.621-1.307,2.409c-0.6,0.79-1.266,1.526-2.001,2.206c-0.735,0.682-1.47,1.335-2.205,1.96
	c-0.736,0.627-1.376,1.213-1.92,1.756c-0.327,1.254-0.667,2.602-1.022,4.044c-0.354,1.444-0.749,2.859-1.183,4.247
	c-0.437,1.389-0.913,2.71-1.43,3.962c-0.518,1.254-1.102,2.316-1.757,3.186v0.082c0.708-0.654,1.634-1.498,2.778-2.533
	c1.143-1.034,2.396-2.136,3.757-3.308c1.361-1.171,2.749-2.381,4.166-3.635c1.415-1.252,2.749-2.422,4.003-3.513
	c1.96-1.796,3.621-3.457,4.983-4.982c1.36-1.524,2.477-2.941,3.348-4.248c0.872-1.307,1.539-2.463,2.002-3.471
	c0.462-1.008,0.748-1.865,0.858-2.573c0.108-0.599,0.122-1.144,0.041-1.634c-0.082-0.49-0.259-0.87-0.531-1.144
	c-0.274-0.271-0.532-0.408-0.776-0.408c-0.245,0-0.341-0.054-0.286-0.164c0.054-0.108,0.176-0.175,0.367-0.204
	C101.668,0.014,101.817,0,101.926,0c1.198,0,2.083,0.396,2.656,1.185c0.571,0.79,0.802,1.729,0.694,2.818
	c-0.219,1.689-1.308,3.839-3.268,6.453c-1.96,2.614-5.201,5.773-9.72,9.475c-3.268,2.669-6.441,5.31-9.517,7.924
	c-3.077,2.614-5.95,5.201-8.617,7.76c-0.273,0.273-0.6,0.545-0.98,0.817c-0.382,0.272-0.817,0.408-1.307,0.408
	c-0.437,0-0.668-0.15-0.694-0.449c-0.029-0.298,0.094-0.612,0.367-0.94c0.707-0.925,1.347-2.095,1.92-3.512
	c0.571-1.415,1.102-2.885,1.592-4.411c0.491-1.524,0.966-3.049,1.43-4.574c0.462-1.524,0.94-2.859,1.43-4.003v-0.082
	c-0.382,0.328-0.954,0.79-1.716,1.389c-0.764,0.6-1.634,1.266-2.614,2.002c-0.98,0.735-2.015,1.511-3.104,2.328
	c-1.09,0.817-2.124,1.58-3.104,2.287c-0.871,0.599-1.934,1.362-3.186,2.287c-1.253,0.927-2.532,1.852-3.839,2.777
	c-1.307,0.927-2.56,1.811-3.757,2.655c-1.199,0.845-2.179,1.511-2.941,2.001c-0.273,0.164-0.559,0.34-0.857,0.531
	c-0.301,0.19-0.586,0.286-0.859,0.286c-0.49,0-0.79-0.15-0.898-0.449c-0.11-0.3,0.027-0.668,0.408-1.103
	c1.579-1.634,3.254-3.472,5.024-5.514c1.769-2.042,3.553-4.342,5.35-6.902c1.798-2.549,3.403-5.112,4.819-7.688
	c1.416-2.577,2.288-4.896,2.615-6.958c0.327-2.115,0-3.674-0.981-4.678C67.293,3.117,65.958,2.615,64.27,2.615 M82.404,14.867
	c0.38-0.38,0.87-0.817,1.471-1.307c0.598-0.49,1.197-1.034,1.797-1.633c0.598-0.599,1.169-1.226,1.714-1.879
	c0.544-0.654,0.953-1.307,1.226-1.961c0.271-0.762,0.299-1.374,0.082-1.838c-0.219-0.462-0.601-0.694-1.144-0.694
	c-0.6,0-1.171,0.341-1.715,1.021c-0.545,0.682-0.953,1.321-1.226,1.92c-0.436,0.926-0.845,1.988-1.225,3.185
	C83.003,12.88,82.675,13.942,82.404,14.867"/>
</svg>
